PathFileType  4	(X/Y/Z) C:\Users\wagnerel85475\Documents\Thesis\opencap-core\Data\3375ffbc-daeb-4a43-b4f7-ac9899cd4c71\MarkerData\PreAugmentation
DataRate	CameraRate	NumFrames	NumMarkers	Units	OrigDataRate	OrigDataStartFrame	OrigNumFrames
60.0	60.0	10	20	m	60.0	226	301
Frame#	Time	Neck			RShoulder			RElbow			RWrist			LShoulder			LElbow			LWrist			midHip			RHip			RKnee			RAnkle			LHip			LKnee			LAnkle			LBigToe			LSmallToe			LHeel			RBigToe			RSmallToe			RHeel			
		X1	Y1	Z1	X2	Y2	Z2	X3	Y3	Z3	X4	Y4	Z4	X5	Y5	Z5	X6	Y6	Z6	X7	Y7	Z7	X8	Y8	Z8	X9	Y9	Z9	X10	Y10	Z10	X11	Y11	Z11	X12	Y12	Z12	X13	Y13	Z13	X14	Y14	Z14	X15	Y15	Z15	X16	Y16	Z16	X17	Y17	Z17	X18	Y18	Z18	X19	Y19	Z19	X20	Y20	Z20	

226	3.7500000	0.7884700	1.3632500	-0.1887800	0.8004800	1.3660500	-0.0009200	0.6997200	1.0662000	0.0747900	0.7929900	0.7768200	0.1577700	0.7854900	1.3569400	-0.3816400	0.6982400	1.0557800	-0.4441700	0.7937200	0.7608100	-0.4842200	0.8102700	0.8190600	-0.1830400	0.8199900	0.8233800	-0.0556900	0.7093400	0.3350000	-0.0538700	0.6570900	-0.1724500	-0.0066200	0.8249500	0.8213300	-0.3026800	0.7368500	0.3548500	-0.2809000	0.6686600	-0.1732800	-0.3261100	0.8860600	-0.2342400	-0.3540400	0.8212500	-0.2326900	-0.3969000	0.6127300	-0.2294600	-0.3335200	0.8658400	-0.2315500	0.0445400	0.8090900	-0.2281500	0.0836000	0.6180400	-0.2309900	-0.0205500
227	3.7666667	0.7881700	1.3633000	-0.1889500	0.7924500	1.3691500	-0.0039500	0.6998200	1.0665300	0.0748300	0.7932600	0.7770300	0.1575500	0.7855600	1.3570300	-0.3816400	0.6978000	1.0555600	-0.4440400	0.7933700	0.7605000	-0.4841100	0.8182800	0.8170600	-0.1791300	0.8275300	0.8242800	-0.0596100	0.7094600	0.3349300	-0.0539800	0.6568200	-0.1725500	-0.0067100	0.8330200	0.8224400	-0.2989100	0.7370700	0.3551500	-0.2807500	0.6689900	-0.1769000	-0.3252000	0.8863100	-0.2342900	-0.3539300	0.8217800	-0.2325700	-0.3968100	0.6123400	-0.2295600	-0.3334600	0.8657600	-0.2314100	0.0447100	0.8097700	-0.2279200	0.0832600	0.6180200	-0.2309800	-0.0205500
228	3.7833333	0.7885000	1.3632700	-0.1887800	0.7916800	1.3691700	-0.0042800	0.6997000	1.0663300	0.0748300	0.7929400	0.7768500	0.1578200	0.7855200	1.3569300	-0.3816200	0.6982300	1.0556200	-0.4441700	0.7935400	0.7607800	-0.4841600	0.8185000	0.8236500	-0.1793100	0.8277000	0.8243200	-0.0596300	0.7093700	0.3350100	-0.0538300	0.6570600	-0.1724800	-0.0066200	0.8333600	0.8222900	-0.2987800	0.7367900	0.3547800	-0.2809300	0.6684700	-0.1768600	-0.3254300	0.8860000	-0.2342400	-0.3540600	0.8211500	-0.2326300	-0.3969300	0.6127700	-0.2293400	-0.3334800	0.8735400	-0.2285200	0.0403800	0.8091300	-0.2281100	0.0835700	0.6180000	-0.2310000	-0.0205400
229	3.8000000	0.7881900	1.3633600	-0.1889500	0.7924300	1.3692200	-0.0039600	0.6997700	1.0665400	0.0748300	0.7931700	0.7769800	0.1576200	0.7856300	1.3570500	-0.3816200	0.6891900	1.0552800	-0.4482500	0.7931700	0.7603500	-0.4840700	0.8184000	0.8203200	-0.1793400	0.8276000	0.8242600	-0.0595900	0.7094000	0.3349200	-0.0540200	0.6568000	-0.1725400	-0.0067100	0.8331500	0.8188700	-0.2990700	0.7370700	0.3551500	-0.2807400	0.6690600	-0.1769100	-0.3251800	0.8862200	-0.2343000	-0.3539600	0.8217700	-0.2327000	-0.3968400	0.6126600	-0.2325500	-0.3340100	0.8732500	-0.2245900	0.0412000	0.8098100	-0.2279100	0.0832500	0.6180100	-0.2310200	-0.0205400
230	3.8166667	0.7885200	1.3633000	-0.1887700	0.7916200	1.3692100	-0.0042800	0.6996400	1.0663600	0.0748600	0.7928400	0.7768400	0.1578300	0.7856400	1.3569300	-0.3815900	0.6896300	1.0554000	-0.4483600	0.7846200	0.7594500	-0.4807200	0.8186900	0.8166400	-0.1792100	0.8277700	0.8242800	-0.0595900	0.7096300	0.3380700	-0.0543600	0.6570000	-0.1724800	-0.0066400	0.8335900	0.8187800	-0.2984900	0.7369500	0.3549500	-0.2808500	0.6685000	-0.1768900	-0.3254100	0.8859300	-0.2342400	-0.3540800	0.8212000	-0.2327600	-0.3969500	0.6130400	-0.2323400	-0.3340400	0.8732200	-0.2247200	0.0410100	0.8090600	-0.2281400	0.0835500	0.6179600	-0.2310300	-0.0205500
231	3.8333333	0.7882000	1.3633400	-0.1889300	0.7923600	1.3692000	-0.0039600	0.6997500	1.0666100	0.0748500	0.7931600	0.7769400	0.1576100	0.7856800	1.3570100	-0.3816100	0.6890100	1.0586600	-0.4483000	0.7931400	0.7603000	-0.4840400	0.8184300	0.8203100	-0.1793000	0.8275500	0.8242500	-0.0595800	0.7093800	0.3349200	-0.0540100	0.6567500	-0.1725500	-0.0067200	0.8331600	0.8223900	-0.2988400	0.7371200	0.3551500	-0.2807300	0.6690200	-0.1769000	-0.3252000	0.8862500	-0.2342900	-0.3539300	0.8217400	-0.2326900	-0.3968100	0.6124200	-0.2295000	-0.3334300	0.8731800	-0.2246300	0.0411700	0.8097100	-0.2279300	0.0832200	0.6179600	-0.2310100	-0.0205500
232	3.8500000	0.7885100	1.3632900	-0.1887700	0.7916000	1.3692100	-0.0042900	0.6997100	1.0664200	0.0748300	0.7928400	0.7768100	0.1578400	0.7856600	1.3568800	-0.3816000	0.6894700	1.0586300	-0.4483800	0.7846200	0.7593900	-0.4806700	0.8186900	0.8200000	-0.1794200	0.8200600	0.8233800	-0.0556600	0.7092900	0.3349800	-0.0539200	0.6570100	-0.1724900	-0.0066300	0.8335100	0.8222400	-0.2987000	0.7369700	0.3550300	-0.2808700	0.6685600	-0.1768900	-0.3254200	0.8859000	-0.2342600	-0.3540700	0.8211400	-0.2327600	-0.3969400	0.6128700	-0.2293000	-0.3334400	0.8732200	-0.2247200	0.0410100	0.8090500	-0.2281500	0.0835400	0.6179400	-0.2310300	-0.0205400
233	3.8666667	0.7881500	1.3633300	-0.1889400	0.7923100	1.3692000	-0.0039800	0.6997800	1.0666200	0.0748300	0.7931100	0.7769300	0.1576400	0.7856200	1.3570200	-0.3816100	0.6892200	1.0551200	-0.4482400	0.7843300	0.7591100	-0.4805600	0.8183800	0.8203000	-0.1793300	0.8198300	0.8233200	-0.0556500	0.7094500	0.3349700	-0.0540000	0.6567900	-0.1725300	-0.0067000	0.8332700	0.8189000	-0.2990300	0.7371200	0.3551700	-0.2807500	0.6689700	-0.1768800	-0.3252300	0.8862300	-0.2342700	-0.3539300	0.8212200	-0.2295600	-0.3961900	0.6123800	-0.2294100	-0.3334500	0.8731600	-0.2246300	0.0411500	0.8096800	-0.2279200	0.0832300	0.6179600	-0.2310200	-0.0205400
234	3.8833333	0.7885300	1.3632500	-0.1887900	0.7915800	1.3692100	-0.0042800	0.6995800	1.0665000	0.0748800	0.7926500	0.7839100	0.1578700	0.7856500	1.3568400	-0.3816100	0.6980000	1.0554200	-0.4442000	0.7846900	0.7593800	-0.4806200	0.8186000	0.8199900	-0.1794400	0.8199600	0.8233600	-0.0556500	0.7092500	0.3350000	-0.0538300	0.6570900	-0.1724400	-0.0066600	0.8334800	0.8222000	-0.2987400	0.7372800	0.3590400	-0.2805500	0.6683200	-0.1734200	-0.3248400	0.8857900	-0.2342700	-0.3541100	0.8125400	-0.2326100	-0.4002100	0.6128500	-0.2291500	-0.3334300	0.8732700	-0.2246800	0.0410200	0.8170700	-0.2251300	0.0792800	0.6180300	-0.2310000	-0.0205600
235	3.9000000	0.7881800	1.3633000	-0.1889400	0.7923200	1.3692000	-0.0039900	0.6995900	1.0666400	0.0749000	0.7929700	0.7808900	0.1579000	0.7856300	1.3570200	-0.3816000	0.6976000	1.0517400	-0.4440500	0.7841900	0.7591700	-0.4804500	0.8183400	0.8203200	-0.1793300	0.8197600	0.8233500	-0.0556200	0.7096200	0.3380600	-0.0543800	0.6568100	-0.1724900	-0.0067200	0.8332700	0.8188900	-0.2990500	0.7374800	0.3592700	-0.2804200	0.6687500	-0.1734200	-0.3246400	0.8783100	-0.2339900	-0.3583200	0.8130100	-0.2324800	-0.4000500	0.6123700	-0.2293700	-0.3334600	0.8655100	-0.2275700	0.0453500	0.8098000	-0.2279500	0.0832700	0.6180100	-0.2310100	-0.0205700
